<?xml version="1.0" standalone="no"?>
<!DOCTYPE svg PUBLIC "-//W3C//DTD SVG 20010904//EN"
 "http://www.w3.org/TR/2001/REC-SVG-20010904/DTD/svg10.dtd">
<svg version="1.0" xmlns="http://www.w3.org/2000/svg"
 width="254.000000pt" height="300.000000pt" viewBox="0 0 254.000000 300.000000"
 preserveAspectRatio="xMidYMid meet">
<metadata>
Created by potrace 1.10, written by Peter Selinger 2001-2011
</metadata>
<g transform="translate(0.000000,300.000000) scale(0.050000,-0.050000)"
fill="#000000" stroke="none">
<path d="M2420 5946 c-652 -298 -1926 -476 -2388 -333 -36 11 -37 1 -24 -236
101 -1775 677 -3259 1782 -4590 214 -258 712 -767 750 -767 38 0 536 509 750
767 1106 1332 1681 2813 1782 4590 13 237 12 247 -24 236 -454 -141 -1646 20
-2347 316 -94 39 -170 70 -170 69 -1 -1 -50 -24 -111 -52z m-1120 -1473 c75
-32 66 -41 -64 -62 -161 -27 -134 -293 41 -396 73 -43 240 -46 294 -6 50 38
87 38 179 0 l75 -31 -48 -52 c-381 -414 -1076 135 -767 606 l30 47 95 -38 c52
-21 127 -51 165 -68z m1308 -2152 c174 262 527 536 889 688 160 67 173 57 38
-30 -466 -298 -975 -1248 -975 -1817 0 -34 -9 -62 -20 -62 -11 0 -20 28 -20
62 0 600 -547 1581 -1036 1858 -153 87 -155 76 31 168 371 182 762 516 935
796 l80 130 10 -941 10 -940 58 88z"/>
</g>
</svg>
